<svg xmlns="http://www.w3.org/2000/svg" xmlns:xlink="http://www.w3.org/1999/xlink" viewBox="0 0 571 393.9" enable-background="new 0 0 571 393.9"><path fill="#FF8787" d="M-191.3-339h123.9v91.3h-123.9zM-487-376h240v128.4h-240z"/><path fill="none" stroke="#000" stroke-width="10" stroke-miterlimit="10" d="M-487-398.1h240.4v364.2H-487z"/><path fill="none" stroke="#FF8787" stroke-width="4" stroke-miterlimit="10" d="M-461 159s33.5-14.3 45-14c11.2.3 34.9 12.6 46 11 12.7-1.8 36.8-37.8 49.2-41.2 12.8-3.6 38.7 18.1 52 18.5 12.2.4 35.1-39.3 47.2-37.3 3.1.5 12.7 10 12.7 10"/><path fill="none" stroke="#000" stroke-width="10" stroke-miterlimit="10" d="M-594 16.9h515.4v364.2H-594zM-482 17v364"/><circle fill="#808080" cx="-566.4" cy="45.7" r="11.4"/><path fill="none" stroke="#000" stroke-width="4" stroke-miterlimit="10" d="M-461.5 45.7h252.8V199h-252.8zM-415.2 216.3h206.5v57.2h-206.5zM-415.2 287.9h206.5v59.8h-206.5zM-193.2 45.7h95.9V199h-95.9zM-193.2 215.7h95.9v132.7h-95.9z"/><path fill="#FF8787" d="M-349 233.6h-53.4c-1.7 0-3-1.3-3-3v-2.4c0-1.7 1.3-3 3-3h53.4c1.7 0 3 1.3 3 3v2.4c0 1.7-1.3 3-3 3z"/><path fill="#808080" d="M-239 248.6h-163.4c-1.7 0-3-1.3-3-3v-2.4c0-1.7 1.3-3 3-3H-239c1.7 0 3 1.3 3 3v2.4c0 1.7-1.3 3-3 3zM-249 263.6h-153.4c-1.7 0-3-1.3-3-3v-2.4c0-1.7 1.3-3 3-3H-249c1.7 0 3 1.3 3 3v2.4c0 1.7-1.3 3-3 3z"/><path fill="#FF8787" d="M-349 306.6h-53.4c-1.7 0-3-1.3-3-3v-2.4c0-1.7 1.3-3 3-3h53.4c1.7 0 3 1.3 3 3v2.4c0 1.7-1.3 3-3 3z"/><path fill="#808080" d="M-239 321.6h-163.4c-1.7 0-3-1.3-3-3v-2.4c0-1.7 1.3-3 3-3H-239c1.7 0 3 1.3 3 3v2.4c0 1.7-1.3 3-3 3zM-249 336.6h-153.4c-1.7 0-3-1.3-3-3v-2.4c0-1.7 1.3-3 3-3H-249c1.7 0 3 1.3 3 3v2.4c0 1.7-1.3 3-3 3z"/><circle fill="#808080" cx="-443.1" cy="232" r="16.7"/><circle fill="#808080" cx="-443.1" cy="302" r="16.7"/><path fill="#808080" d="M-115.7 90.5h-63.4c-1.7 0-3-1.3-3-3v-2.4c0-1.7 1.3-3 3-3h63.4c1.7 0 3 1.3 3 3v2.4c0 1.6-1.3 3-3 3zM-125.7 105.5h-53.4c-1.7 0-3-1.3-3-3v-2.4c0-1.7 1.3-3 3-3h53.4c1.7 0 3 1.3 3 3v2.4c0 1.6-1.3 3-3 3zM-115.7 74.5h-63.4c-1.7 0-3-1.3-3-3v-2.4c0-1.7 1.3-3 3-3h63.4c1.7 0 3 1.3 3 3v2.4c0 1.6-1.3 3-3 3z"/><path fill="#FF8787" d="M-121.4 91.9c-2.8 0-5.2 2.3-5.2 5.2s2.3 5.2 5.2 5.2c2.8 0 5.2-2.3 5.2-5.2s-2.4-5.2-5.2-5.2zm.9 2.1l-.2 4h-1.1l-.2-4h1.5zm-.8 6c-.5 0-.8-.4-.8-.9s.3-.9.8-.9.8.4.8.9c.1.6-.3.9-.8.9z"/><path fill="#808080" d="M-501.4 49.9h-43.4c-1.7 0-3-1.3-3-3v-2.4c0-1.7 1.3-3 3-3h43.4c1.7 0 3 1.3 3 3v2.4c0 1.6-1.3 3-3 3zM-501 72.5h-72.4c-1.7 0-3-1.3-3-3v-2.4c0-1.7 1.3-3 3-3h72.4c1.7 0 3 1.3 3 3v2.4c0 1.7-1.4 3-3 3zM-501 92.5h-72.4c-1.7 0-3-1.3-3-3v-2.4c0-1.7 1.3-3 3-3h72.4c1.7 0 3 1.3 3 3v2.4c0 1.7-1.4 3-3 3zM-501 112.5h-72.4c-1.7 0-3-1.3-3-3v-2.4c0-1.7 1.3-3 3-3h72.4c1.7 0 3 1.3 3 3v2.4c0 1.7-1.4 3-3 3z"/><circle fill="#FF8787" cx="-145.1" cy="282" r="33.4"/><path fill="#808080" d="M-145 282v-33l.2-.4h-.3c-18.4 0-33.4 14.9-33.4 33.4 0 18.4 14.9 33.4 33.4 33.4 11.6 0 21.8-5.9 27.7-14.8L-145 282z"/><path fill="none" stroke="#000" stroke-width="4" stroke-miterlimit="10" d="M-487-376h240"/><circle fill="#FF8787" cx="-473.3" cy="-385.7" r="4.3"/><circle fill="#FFF13F" cx="-457.3" cy="-385.7" r="4.3"/><circle fill="#7FFFAF" cx="-440.3" cy="-385.7" r="4.3"/><circle fill="#808080" cx="-367.1" cy="-210" r="16.7"/><path fill="#808080" d="M-391.3-304.7h-53.4c-1.7 0-3-1.3-3-3v-2.4c0-1.7 1.3-3 3-3h53.4c1.7 0 3 1.3 3 3v2.4c0 1.7-1.3 3-3 3zM-281.3-289.7h-163.4c-1.7 0-3-1.3-3-3v-2.4c0-1.7 1.3-3 3-3h163.4c1.7 0 3 1.3 3 3v2.4c0 1.7-1.3 3-3 3z"/><circle fill="#808080" cx="-431.1" cy="-210" r="16.7"/><circle fill="#808080" cx="-301.1" cy="-210" r="16.7"/><path fill="#FF8787" d="M-409-173.9h-43.4c-1.7 0-3-1.3-3-3v-2.4c0-1.7 1.3-3 3-3h43.4c1.7 0 3 1.3 3 3v2.4c0 1.7-1.3 3-3 3z"/><path fill="#808080" d="M-409-158.9h-43.4c-1.7 0-3-1.3-3-3v-2.4c0-1.7 1.3-3 3-3h43.4c1.7 0 3 1.3 3 3v2.4c0 1.7-1.3 3-3 3z"/><path fill="#FF8787" d="M-345-173.9h-43.4c-1.7 0-3-1.3-3-3v-2.4c0-1.7 1.3-3 3-3h43.4c1.7 0 3 1.3 3 3v2.4c0 1.7-1.3 3-3 3z"/><path fill="#808080" d="M-345-158.9h-43.4c-1.7 0-3-1.3-3-3v-2.4c0-1.7 1.3-3 3-3h43.4c1.7 0 3 1.3 3 3v2.4c0 1.7-1.3 3-3 3z"/><path fill="#FF8787" d="M-279-173.9h-43.4c-1.7 0-3-1.3-3-3v-2.4c0-1.7 1.3-3 3-3h43.4c1.7 0 3 1.3 3 3v2.4c0 1.7-1.3 3-3 3z"/><path fill="#808080" d="M-279-158.9h-43.4c-1.7 0-3-1.3-3-3v-2.4c0-1.7 1.3-3 3-3h43.4c1.7 0 3 1.3 3 3v2.4c0 1.7-1.3 3-3 3z"/><path fill="none" stroke="#000" stroke-width="4" stroke-miterlimit="10" d="M-452.1-131.7h172.3v57.2h-172.3z"/><path fill="#FF8787" d="M-343-114.4h-53.4c-1.7 0-3-1.3-3-3v-2.4c0-1.7 1.3-3 3-3h53.4c1.7 0 3 1.3 3 3v2.4c0 1.7-1.3 3-3 3z"/><path fill="#808080" d="M-299-99.4h-97.4c-1.7 0-3-1.3-3-3v-2.4c0-1.7 1.3-3 3-3h97.4c1.7 0 3 1.3 3 3v2.4c0 1.7-1.3 3-3 3zM-309-84.4h-87.4c-1.7 0-3-1.3-3-3v-2.4c0-1.7 1.3-3 3-3h87.4c1.7 0 3 1.3 3 3v2.4c0 1.7-1.3 3-3 3zM-442.8-120.7h33.4v33.4h-33.4z"/><path fill="none" stroke="#000" stroke-width="10" stroke-miterlimit="10" d="M-193.3-339H-66v207.3h-127.3z"/><path fill="#808080" d="M-134.1-278.3h-36.3c-1.6 0-3-1.3-3-3 0-1.6 1.3-3 3-3h36.3c1.6 0 3 1.3 3 3s-1.4 3-3 3zM-95.9-267.6h-74.5c-1.6 0-3-1.3-3-3 0-1.6 1.3-3 3-3h74.5c1.6 0 3 1.3 3 3 0 1.6-1.3 3-3 3zM-95.9-257.6h-74.5c-1.6 0-3-1.3-3-3 0-1.6 1.3-3 3-3h74.5c1.6 0 3 1.3 3 3 0 1.6-1.3 3-3 3z"/><circle fill="#808080" cx="-131.1" cy="-212" r="16.7"/><path fill="#FF8787" d="M-109-175.9h-43.4c-1.7 0-3-1.3-3-3v-2.4c0-1.7 1.3-3 3-3h43.4c1.7 0 3 1.3 3 3v2.4c0 1.7-1.3 3-3 3z"/><path fill="#808080" d="M-109-160.9h-43.4c-1.7 0-3-1.3-3-3v-2.4c0-1.7 1.3-3 3-3h43.4c1.7 0 3 1.3 3 3v2.4c0 1.7-1.3 3-3 3z"/><path fill="none" stroke="#000" stroke-width="10" stroke-miterlimit="10" d="M220.5-124h177.9v90.4H220.5z"/><circle fill="#FF8787" cx="307.6" cy="171.9" r="8.5"/><g fill="none" stroke="#000" stroke-width="4" stroke-miterlimit="10"><path d="M453 170.4c0-3.2-28.7-8.4-28.7-8.4H287v18h137.7s28.3-6.3 28.3-9.6zM293.6 180.9l10.6 8.1H350"/></g><path fill="#808080" d="M364.7-83.9h-74.6c-2.3 0-4.2-1.9-4.2-4.2v-.5c0-2.3 1.9-4.2 4.2-4.2h74.6c2.3 0 4.2 1.9 4.2 4.2v.5c0 2.3-1.9 4.2-4.2 4.2z"/><path fill="#FF8787" stroke="#000" stroke-width="6" stroke-miterlimit="10" d="M287.8 38.7h147.1v74.7H287.8z"/><path fill="#fff" d="M392.2 80.9h-62.6c-1.7 0-3-1.3-3-3v-3.7c0-1.7 1.3-3 3-3h62.6c1.7 0 3 1.3 3 3v3.7c0 1.7-1.4 3-3 3z"/><path fill="#808080" d="M364.7-69.9h-74.6c-2.3 0-4.2-1.9-4.2-4.2v-.5c0-2.3 1.9-4.2 4.2-4.2h74.6c2.3 0 4.2 1.9 4.2 4.2v.5c0 2.3-1.9 4.2-4.2 4.2z"/><circle fill="#FF8787" cx="256.8" cy="-81.2" r="14.2"/><defs><path id="a" d="M174.5 250.1H256v107h-81.5z"/></defs><clipPath id="b"><use xlink:href="#a" overflow="visible"/></clipPath><g clip-path="url(#b)"><circle fill="#808080" cx="220.5" cy="343.9" r="40.3"/><circle fill="#FF8787" cx="249.3" cy="315.1" r="40.3"/></g><path fill="none" stroke="#000" stroke-width="6" stroke-miterlimit="10" d="M23.5 37.3h232.3v320.5H23.5z"/><circle fill="#FF8787" cx="54.5" cy="70.7" r="13.3"/><path fill="#808080" d="M148.9 68.3H79.1c-2.2 0-3.9-1.8-3.9-3.9v-.5c0-2.2 1.8-3.9 3.9-3.9h69.8c2.2 0 3.9 1.8 3.9 3.9v.5c0 2.1-1.8 3.9-3.9 3.9zM148.9 81.4H79.1c-2.2 0-3.9-1.8-3.9-3.9V77c0-2.2 1.8-3.9 3.9-3.9h69.8c2.2 0 3.9 1.8 3.9 3.9v.5c0 2.1-1.8 3.9-3.9 3.9z"/><path fill="none" stroke="#000" stroke-width="4" stroke-miterlimit="10" d="M41 105h193"/><path fill="#808080" d="M135.8 338.7H66c-2.2 0-3.9-1.8-3.9-3.9v-.5c0-2.2 1.8-3.9 3.9-3.9h69.8c2.2 0 3.9 1.8 3.9 3.9v.5c0 2.1-1.7 3.9-3.9 3.9z"/><defs><path id="c" d="M476.8 261.8h72v94.5h-72z"/></defs><clipPath id="d"><use xlink:href="#c" overflow="visible"/></clipPath><g clip-path="url(#d)"><circle fill="#808080" cx="517.4" cy="344.7" r="35.6"/><circle fill="#FF8787" cx="542.8" cy="319.3" r="35.6"/></g><path fill="#808080" d="M465.7 340.1H404c-1.9 0-3.5-1.6-3.5-3.5v-.4c0-1.9 1.6-3.5 3.5-3.5h61.7c1.9 0 3.5 1.6 3.5 3.5v.4c-.1 1.9-1.6 3.5-3.5 3.5z"/><path fill="none" stroke="#000" stroke-width="6" stroke-miterlimit="10" d="M289.2 234.2H549v122.7H289.2z"/><path fill="#808080" d="M379.6 340.1h-61.7c-1.9 0-3.5-1.6-3.5-3.5v-.4c0-1.9 1.6-3.5 3.5-3.5h61.7c1.9 0 3.5 1.6 3.5 3.5v.4c0 1.9-1.6 3.5-3.5 3.5z"/></svg>