<?xml version="1.0" encoding="utf-8"?>
<!-- Generator: Adobe Illustrator 18.0.0, SVG Export Plug-In . SVG Version: 6.00 Build 0)  -->
<!DOCTYPE svg PUBLIC "-//W3C//DTD SVG 1.1//EN" "http://www.w3.org/Graphics/SVG/1.1/DTD/svg11.dtd">
<svg version="1.1" id="Layer_1" xmlns="http://www.w3.org/2000/svg" xmlns:xlink="http://www.w3.org/1999/xlink" x="0px" y="0px"
	 viewBox="0 0 571 393.9" enable-background="new 0 0 571 393.9" xml:space="preserve">
<rect x="-191.3" y="-339" fill="#FF8787" width="123.9" height="91.3"/>
<rect x="-487" y="-376" fill="#FF8787" width="240" height="128.4"/>
<rect x="-487" y="-398.1" fill="none" stroke="#000000" stroke-width="10" stroke-miterlimit="10" width="240.4" height="364.2"/>
<path fill="none" stroke="#FF8787" stroke-width="4" stroke-miterlimit="10" d="M-461,159c0,0,33.5-14.3,45-14
	c11.2,0.3,34.9,12.6,46,11c12.7-1.8,36.8-37.8,49.2-41.2c12.8-3.6,38.7,18.1,52,18.5c12.2,0.4,35.1-39.3,47.2-37.3
	c3.1,0.5,12.7,10,12.7,10"/>
<rect x="-594" y="16.9" fill="none" stroke="#000000" stroke-width="10" stroke-miterlimit="10" width="515.4" height="364.2"/>
<line fill="none" stroke="#000000" stroke-width="10" stroke-miterlimit="10" x1="-482" y1="17" x2="-482" y2="381"/>
<circle fill="#808080" cx="-566.4" cy="45.7" r="11.4"/>
<rect x="-461.5" y="45.7" fill="none" stroke="#000000" stroke-width="4" stroke-miterlimit="10" width="252.8" height="153.3"/>
<rect x="-415.2" y="216.3" fill="none" stroke="#000000" stroke-width="4" stroke-miterlimit="10" width="206.5" height="57.2"/>
<rect x="-415.2" y="287.9" fill="none" stroke="#000000" stroke-width="4" stroke-miterlimit="10" width="206.5" height="59.8"/>
<rect x="-193.2" y="45.7" fill="none" stroke="#000000" stroke-width="4" stroke-miterlimit="10" width="95.9" height="153.3"/>
<rect x="-193.2" y="215.7" fill="none" stroke="#000000" stroke-width="4" stroke-miterlimit="10" width="95.9" height="132.7"/>
<path fill="#FF8787" d="M-349,233.6h-53.4c-1.7,0-3-1.3-3-3v-2.4c0-1.7,1.3-3,3-3h53.4c1.7,0,3,1.3,3,3v2.4
	C-346,232.3-347.3,233.6-349,233.6z"/>
<path fill="#808080" d="M-239,248.6h-163.4c-1.7,0-3-1.3-3-3v-2.4c0-1.7,1.3-3,3-3H-239c1.7,0,3,1.3,3,3v2.4
	C-236,247.3-237.3,248.6-239,248.6z"/>
<path fill="#808080" d="M-249,263.6h-153.4c-1.7,0-3-1.3-3-3v-2.4c0-1.7,1.3-3,3-3H-249c1.7,0,3,1.3,3,3v2.4
	C-246,262.3-247.3,263.6-249,263.6z"/>
<path fill="#FF8787" d="M-349,306.6h-53.4c-1.7,0-3-1.3-3-3v-2.4c0-1.7,1.3-3,3-3h53.4c1.7,0,3,1.3,3,3v2.4
	C-346,305.3-347.3,306.6-349,306.6z"/>
<path fill="#808080" d="M-239,321.6h-163.4c-1.7,0-3-1.3-3-3v-2.4c0-1.7,1.3-3,3-3H-239c1.7,0,3,1.3,3,3v2.4
	C-236,320.3-237.3,321.6-239,321.6z"/>
<path fill="#808080" d="M-249,336.6h-153.4c-1.7,0-3-1.3-3-3v-2.4c0-1.7,1.3-3,3-3H-249c1.7,0,3,1.3,3,3v2.4
	C-246,335.3-247.3,336.6-249,336.6z"/>
<circle fill="#808080" cx="-443.1" cy="232" r="16.7"/>
<circle fill="#808080" cx="-443.1" cy="302" r="16.7"/>
<path fill="#808080" d="M-115.7,90.5h-63.4c-1.7,0-3-1.3-3-3v-2.4c0-1.7,1.3-3,3-3h63.4c1.7,0,3,1.3,3,3v2.4
	C-112.7,89.1-114,90.5-115.7,90.5z"/>
<path fill="#808080" d="M-125.7,105.5h-53.4c-1.7,0-3-1.3-3-3v-2.4c0-1.7,1.3-3,3-3h53.4c1.7,0,3,1.3,3,3v2.4
	C-122.7,104.1-124,105.5-125.7,105.5z"/>
<path fill="#808080" d="M-115.7,74.5h-63.4c-1.7,0-3-1.3-3-3v-2.4c0-1.7,1.3-3,3-3h63.4c1.7,0,3,1.3,3,3v2.4
	C-112.7,73.1-114,74.5-115.7,74.5z"/>
<path fill="#FF8787" d="M-121.4,91.9c-2.8,0-5.2,2.3-5.2,5.2s2.3,5.2,5.2,5.2c2.8,0,5.2-2.3,5.2-5.2S-118.6,91.9-121.4,91.9z
	 M-120.5,94l-0.2,4h-1.1l-0.2-4H-120.5z M-121.3,100c-0.5,0-0.8-0.4-0.8-0.9c0-0.5,0.3-0.9,0.8-0.9s0.8,0.4,0.8,0.9
	C-120.4,99.7-120.8,100-121.3,100z"/>
<path fill="#808080" d="M-501.4,49.9h-43.4c-1.7,0-3-1.3-3-3v-2.4c0-1.7,1.3-3,3-3h43.4c1.7,0,3,1.3,3,3v2.4
	C-498.4,48.5-499.7,49.9-501.4,49.9z"/>
<path fill="#808080" d="M-501,72.5h-72.4c-1.7,0-3-1.3-3-3v-2.4c0-1.7,1.3-3,3-3h72.4c1.7,0,3,1.3,3,3v2.4
	C-498,71.2-499.4,72.5-501,72.5z"/>
<path fill="#808080" d="M-501,92.5h-72.4c-1.7,0-3-1.3-3-3v-2.4c0-1.7,1.3-3,3-3h72.4c1.7,0,3,1.3,3,3v2.4
	C-498,91.2-499.4,92.5-501,92.5z"/>
<path fill="#808080" d="M-501,112.5h-72.4c-1.7,0-3-1.3-3-3v-2.4c0-1.7,1.3-3,3-3h72.4c1.7,0,3,1.3,3,3v2.4
	C-498,111.2-499.4,112.5-501,112.5z"/>
<circle fill="#FF8787" cx="-145.1" cy="282" r="33.4"/>
<path fill="#808080" d="M-145,282v-33l0.2-0.4c-0.1,0-0.2,0-0.3,0c-18.4,0-33.4,14.9-33.4,33.4c0,18.4,14.9,33.4,33.4,33.4
	c11.6,0,21.8-5.9,27.7-14.8L-145,282z"/>
<line fill="none" stroke="#000000" stroke-width="4" stroke-miterlimit="10" x1="-487" y1="-376" x2="-247" y2="-376"/>
<circle fill="#FF8787" cx="-473.3" cy="-385.7" r="4.3"/>
<circle fill="#FFF13F" cx="-457.3" cy="-385.7" r="4.3"/>
<circle fill="#7FFFAF" cx="-440.3" cy="-385.7" r="4.3"/>
<circle fill="#808080" cx="-367.1" cy="-210" r="16.7"/>
<path fill="#808080" d="M-391.3-304.7h-53.4c-1.7,0-3-1.3-3-3v-2.4c0-1.7,1.3-3,3-3h53.4c1.7,0,3,1.3,3,3v2.4
	C-388.3-306-389.6-304.7-391.3-304.7z"/>
<path fill="#808080" d="M-281.3-289.7h-163.4c-1.7,0-3-1.3-3-3v-2.4c0-1.7,1.3-3,3-3h163.4c1.7,0,3,1.3,3,3v2.4
	C-278.3-291-279.6-289.7-281.3-289.7z"/>
<circle fill="#808080" cx="-431.1" cy="-210" r="16.7"/>
<circle fill="#808080" cx="-301.1" cy="-210" r="16.7"/>
<path fill="#FF8787" d="M-409-173.9h-43.4c-1.7,0-3-1.3-3-3v-2.4c0-1.7,1.3-3,3-3h43.4c1.7,0,3,1.3,3,3v2.4
	C-406-175.2-407.3-173.9-409-173.9z"/>
<path fill="#808080" d="M-409-158.9h-43.4c-1.7,0-3-1.3-3-3v-2.4c0-1.7,1.3-3,3-3h43.4c1.7,0,3,1.3,3,3v2.4
	C-406-160.2-407.3-158.9-409-158.9z"/>
<path fill="#FF8787" d="M-345-173.9h-43.4c-1.7,0-3-1.3-3-3v-2.4c0-1.7,1.3-3,3-3h43.4c1.7,0,3,1.3,3,3v2.4
	C-342-175.2-343.3-173.9-345-173.9z"/>
<path fill="#808080" d="M-345-158.9h-43.4c-1.7,0-3-1.3-3-3v-2.4c0-1.7,1.3-3,3-3h43.4c1.7,0,3,1.3,3,3v2.4
	C-342-160.2-343.3-158.9-345-158.9z"/>
<path fill="#FF8787" d="M-279-173.9h-43.4c-1.7,0-3-1.3-3-3v-2.4c0-1.7,1.3-3,3-3h43.4c1.7,0,3,1.3,3,3v2.4
	C-276-175.2-277.3-173.9-279-173.9z"/>
<path fill="#808080" d="M-279-158.9h-43.4c-1.7,0-3-1.3-3-3v-2.4c0-1.7,1.3-3,3-3h43.4c1.7,0,3,1.3,3,3v2.4
	C-276-160.2-277.3-158.9-279-158.9z"/>
<rect x="-452.1" y="-131.7" fill="none" stroke="#000000" stroke-width="4" stroke-miterlimit="10" width="172.3" height="57.2"/>
<path fill="#FF8787" d="M-343-114.4h-53.4c-1.7,0-3-1.3-3-3v-2.4c0-1.7,1.3-3,3-3h53.4c1.7,0,3,1.3,3,3v2.4
	C-340-115.7-341.3-114.4-343-114.4z"/>
<path fill="#808080" d="M-299-99.4h-97.4c-1.7,0-3-1.3-3-3v-2.4c0-1.7,1.3-3,3-3h97.4c1.7,0,3,1.3,3,3v2.4
	C-296-100.7-297.3-99.4-299-99.4z"/>
<path fill="#808080" d="M-309-84.4h-87.4c-1.7,0-3-1.3-3-3v-2.4c0-1.7,1.3-3,3-3h87.4c1.7,0,3,1.3,3,3v2.4
	C-306-85.7-307.3-84.4-309-84.4z"/>
<rect x="-442.8" y="-120.7" fill="#808080" width="33.4" height="33.4"/>
<rect x="-193.3" y="-339" fill="none" stroke="#000000" stroke-width="10" stroke-miterlimit="10" width="127.3" height="207.3"/>
<path fill="#808080" d="M-134.1-278.3h-36.3c-1.6,0-3-1.3-3-3v0c0-1.6,1.3-3,3-3h36.3c1.6,0,3,1.3,3,3v0
	C-131.1-279.6-132.5-278.3-134.1-278.3z"/>
<path fill="#808080" d="M-95.9-267.6h-74.5c-1.6,0-3-1.3-3-3l0,0c0-1.6,1.3-3,3-3h74.5c1.6,0,3,1.3,3,3l0,0
	C-92.9-269-94.2-267.6-95.9-267.6z"/>
<path fill="#808080" d="M-95.9-257.6h-74.5c-1.6,0-3-1.3-3-3l0,0c0-1.6,1.3-3,3-3h74.5c1.6,0,3,1.3,3,3l0,0
	C-92.9-259-94.2-257.6-95.9-257.6z"/>
<circle fill="#808080" cx="-131.1" cy="-212" r="16.7"/>
<path fill="#FF8787" d="M-109-175.9h-43.4c-1.7,0-3-1.3-3-3v-2.4c0-1.7,1.3-3,3-3h43.4c1.7,0,3,1.3,3,3v2.4
	C-106-177.2-107.3-175.9-109-175.9z"/>
<path fill="#808080" d="M-109-160.9h-43.4c-1.7,0-3-1.3-3-3v-2.4c0-1.7,1.3-3,3-3h43.4c1.7,0,3,1.3,3,3v2.4
	C-106-162.2-107.3-160.9-109-160.9z"/>
<rect x="220.5" y="-124" fill="none" stroke="#000000" stroke-width="10" stroke-miterlimit="10" width="177.9" height="90.4"/>
<g>
	<circle fill="#FF8787" cx="307.6" cy="171.9" r="8.5"/>
	<g>
		<path fill="none" stroke="#000000" stroke-width="4" stroke-miterlimit="10" d="M453,170.4c0-3.2-28.7-8.4-28.7-8.4H287v18h137.7
			C424.7,180,453,173.7,453,170.4z"/>
		<polyline fill="none" stroke="#000000" stroke-width="4" stroke-miterlimit="10" points="293.6,180.9 304.2,189 350,189 		"/>
	</g>
</g>
<path fill="#808080" d="M364.7-83.9h-74.6c-2.3,0-4.2-1.9-4.2-4.2v-0.5c0-2.3,1.9-4.2,4.2-4.2h74.6c2.3,0,4.2,1.9,4.2,4.2v0.5
	C368.9-85.8,367-83.9,364.7-83.9z"/>
<rect x="287.8" y="38.7" fill="#FF8787" stroke="#000000" stroke-width="6" stroke-miterlimit="10" width="147.1" height="74.7"/>
<g>
	<path fill="#FFFFFF" d="M392.2,80.9h-62.6c-1.7,0-3-1.3-3-3v-3.7c0-1.7,1.3-3,3-3h62.6c1.7,0,3,1.3,3,3v3.7
		C395.2,79.6,393.8,80.9,392.2,80.9z"/>
</g>
<path fill="#808080" d="M364.7-69.9h-74.6c-2.3,0-4.2-1.9-4.2-4.2v-0.5c0-2.3,1.9-4.2,4.2-4.2h74.6c2.3,0,4.2,1.9,4.2,4.2v0.5
	C368.9-71.8,367-69.9,364.7-69.9z"/>
<circle fill="#FF8787" cx="256.8" cy="-81.2" r="14.2"/>
<g>
	<defs>
		<rect id="SVGID_1_" x="174.5" y="250.1" width="81.5" height="107"/>
	</defs>
	<clipPath id="SVGID_2_">
		<use xlink:href="#SVGID_1_"  overflow="visible"/>
	</clipPath>
	<g clip-path="url(#SVGID_2_)">
		<circle fill="#808080" cx="220.5" cy="343.9" r="40.3"/>
		<circle fill="#FF8787" cx="249.3" cy="315.1" r="40.3"/>
	</g>
</g>
<rect x="23.5" y="37.3" fill="none" stroke="#000000" stroke-width="6" stroke-miterlimit="10" width="232.3" height="320.5"/>
<circle fill="#FF8787" cx="54.5" cy="70.7" r="13.3"/>
<path fill="#808080" d="M148.9,68.3H79.1c-2.2,0-3.9-1.8-3.9-3.9v-0.5c0-2.2,1.8-3.9,3.9-3.9h69.8c2.2,0,3.9,1.8,3.9,3.9v0.5
	C152.8,66.5,151,68.3,148.9,68.3z"/>
<path fill="#808080" d="M148.9,81.4H79.1c-2.2,0-3.9-1.8-3.9-3.9V77c0-2.2,1.8-3.9,3.9-3.9h69.8c2.2,0,3.9,1.8,3.9,3.9v0.5
	C152.8,79.6,151,81.4,148.9,81.4z"/>
<line fill="none" stroke="#000000" stroke-width="4" stroke-miterlimit="10" x1="41" y1="105" x2="234" y2="105"/>
<path fill="#808080" d="M135.8,338.7H66c-2.2,0-3.9-1.8-3.9-3.9v-0.5c0-2.2,1.8-3.9,3.9-3.9h69.8c2.2,0,3.9,1.8,3.9,3.9v0.5
	C139.7,336.9,138,338.7,135.8,338.7z"/>
<g>
	<defs>
		<rect id="SVGID_3_" x="476.8" y="261.8" width="72" height="94.5"/>
	</defs>
	<clipPath id="SVGID_4_">
		<use xlink:href="#SVGID_3_"  overflow="visible"/>
	</clipPath>
	<g clip-path="url(#SVGID_4_)">
		<circle fill="#808080" cx="517.4" cy="344.7" r="35.6"/>
		<circle fill="#FF8787" cx="542.8" cy="319.3" r="35.6"/>
	</g>
</g>
<path fill="#808080" d="M465.7,340.1H404c-1.9,0-3.5-1.6-3.5-3.5v-0.4c0-1.9,1.6-3.5,3.5-3.5h61.7c1.9,0,3.5,1.6,3.5,3.5v0.4
	C469.1,338.5,467.6,340.1,465.7,340.1z"/>
<rect x="289.2" y="234.2" fill="none" stroke="#000000" stroke-width="6" stroke-miterlimit="10" width="259.8" height="122.7"/>
<path fill="#808080" d="M379.6,340.1h-61.7c-1.9,0-3.5-1.6-3.5-3.5v-0.4c0-1.9,1.6-3.5,3.5-3.5h61.7c1.9,0,3.5,1.6,3.5,3.5v0.4
	C383.1,338.5,381.5,340.1,379.6,340.1z"/>
</svg>
